<svg version="1.1" id="Layer_1" xmlns="http://www.w3.org/2000/svg" xmlns:xlink="http://www.w3.org/1999/xlink" x="0" y="0" viewBox="0 0 1133.9 1417.3" xml:space="preserve">
  <style>
    .st0{stroke:#000;stroke-width:45;stroke-miterlimit:10}.st1{fill:#ef3d23}
  </style>
  <path class="st0" d="M120.4 997.5c-7.1 0-14.1-1.1-20.9-3.4-34.8-11.5-53.7-49.3-42.2-84.1l126-379.9c-1.7.1-3.4.2-5.1.2-17.8 0-34.5-6.9-47-19.5-12.6-12.6-19.5-29.3-19.5-47s6.9-34.5 19.5-47l145.3-145.3c12.6-12.6 29.3-19.5 47-19.5 12.3 0 24.4 3.4 34.9 9.9 26.4 16.3 38 48.1 28.2 77.5L183.5 951.9c-9 27.3-34.4 45.6-63.1 45.6z"/>
  <path class="st0" d="M439 813.7c-25.4 0-49.9-7.8-71-22.6-41.5-29.1-64.8-78.4-69.2-146.6-3.7-56.7 6.9-109.2 11.6-129.1 20.4-86.5 68.3-163.5 134.9-216.7 31.5-25.2 70.9-39.7 108.1-39.7 27.4 0 52.5 7.5 74.7 22.2 31.1 20.7 53.6 55.5 64.8 100.7 7.4 29.9 10 64.8 6.9 95.8-4.5 45.9-16.6 92.9-35.1 136-19.8 46.3-46 86.8-77.7 120.2-50.4 52.9-100.1 79.8-148 79.8z"/>
  <path class="st0" d="M825.1 775c-21.9 0-42.9-5.3-62.4-15.9-19.4-10.5-36.4-25.6-50.6-45-22.7-31.1-35.4-71.4-36.8-116.4-.9-30.7-.8-67.2 7.3-105.6 9.3-44.1 25.6-85.9 48.6-124.3 23.7-39.8 53.5-74.1 88.5-102.1 21.3-17 64.5-45.7 114.2-45.7 6.2 0 12.5.5 18.5 1.3 34.4 5 63.6 23.8 84.5 54.1 40.4 58.6 32.8 142.8 23.5 201-9.4 59.3-29.5 117.2-59.5 172-25.1 45.6-64.3 85.3-107.6 108.7-22 11.9-45 17.9-68.2 17.9zM283.3 1033.4c-29.5 0-55.8-19.8-63.9-48.3-4.9-17.1-2.8-35 5.8-50.6s22.8-26.8 39.9-31.6c14.3-4.1 29-9.4 44.5-15 4.6-1.7 9.2-3.3 13.8-5 88.6-31.6 181-54.3 274.7-67.6 65.3-9.2 131.8-13.9 197.7-13.9 28.3 0 56.9.9 85 2.6 36.6 2.2 64.6 33.8 62.3 70.4-2.1 35-31.3 62.5-66.4 62.5-1.3 0-2.7 0-4.1-.1-25.1-1.5-50.7-2.3-76.1-2.3-144.9 0-293.1 25.5-428.5 73.7l-12.6 4.5-.5.2c-17 6.1-34.5 12.5-53.3 17.9-6 1.8-12.2 2.6-18.3 2.6z"/>
  <path class="st0" d="M210.1 1214.4c-25.5 0-49-14.8-60-37.8-7.7-16-8.7-34.1-2.8-50.8 5.9-16.8 18-30.2 34-37.9 11.3-5.4 22.7-10.8 34.2-16C324 1022.5 428.3 985 525.4 960.5c97.8-24.7 192.4-37.2 281-37.2 48.8 0 97.1 3.8 143.5 11.2 17.5 2.8 32.9 12.3 43.4 26.7 10.4 14.4 14.6 32 11.8 49.5-2.5 15.7-10.6 30-22.7 40.3-12 10.1-27.2 15.7-42.9 15.7-3.5 0-7.1-.3-10.6-.8-39.5-6.3-80.6-9.5-122.4-9.5-158.6 0-333.9 44.7-535.7 136.6-10.6 4.8-21.3 9.8-31.8 14.9-9.3 4.3-18.9 6.5-28.9 6.5z"/>
  <image width="160" height="160" xlink:href="69CF86D3.jpg" transform="translate(-1498.375 123.698) scale(6.8066)" overflow="visible"/>
  <path class="st1" d="M120.4 972c-4.3 0-8.6-.7-12.9-2.1-21.5-7.1-33.1-30.3-26-51.8l148.6-448.2-22.9 22.9c-16 16-42 16-58 0s-16-42 0-58l145.3-145.3c13.4-13.4 34.3-15.9 50.5-5.9 16.2 10 23.4 29.8 17.4 47.8L159.3 943.9c-5.7 17.2-21.7 28.1-38.9 28.1zM439 788.2c-24.6 0-43.6-9-56.4-18-34.8-24.4-54.5-67.3-58.4-127.3-3.4-53.3 6.5-102.8 11-121.6 19.1-81 63.9-153 126-202.7 40-32 102.7-49.4 152.7-16.1 25.8 17.1 44.5 46.7 54.2 85.6 6.8 27.2 9.1 58.9 6.3 87.1-4.2 43.3-15.7 87.7-33.2 128.4-18.7 43.5-43.1 81.5-72.8 112.7-52.5 55.4-96.1 71.9-129.4 71.9zm114-421.7c-13.5 0-29.2 6.9-40.6 16-47.9 38.3-82.5 94.3-97.4 157.5-2.8 11.9-11.8 54-8.9 97.4 2.1 33.1 10.5 56.3 23.6 65.5 3 2.1 9.9 6.9 29.5-3.1 14.8-7.6 32-21.4 49.7-40.1 45.4-47.8 76.7-119.8 83.9-192.7 1.9-19 .3-41.1-4.3-59.3-4.5-18.2-11.8-31.7-20-37.1-4.4-2.8-9.7-4.1-15.5-4.1zm-66.2-15.9zM825.1 749.5c-35.1 0-68.3-17.4-92.4-50.4C713 672.2 702 636.9 700.8 597c-.9-29.2-.8-63.8 6.8-99.5 8.7-41.3 24-80.5 45.5-116.5 22.2-37.1 49.9-69.2 82.5-95.3 22-17.6 65.9-46 113.1-39.1 27.2 4 50.4 19 67.2 43.4 35.2 51 27.9 128.6 19.3 182.5-9 56.4-28 111.5-56.7 163.7-22.8 41.5-58.3 77.4-97.4 98.5-18.4 10-37.5 14.8-56 14.8zm61.7-399.8c-49.9 40-85.1 98.4-99 164.7-5.7 27.2-5.8 54.6-5 80.2.5 16.2 3.7 39.2 16.1 56.3 16.3 22.3 31.6 18 43.2 11.7 25.3-13.6 49.4-38.2 64.5-65.8 23.8-43.3 40.2-90.7 47.6-137.1 12.9-81.1 1.9-111.9-5.8-123.1-5.5-7.9-9.7-8.5-11.7-8.8-9.4-1.5-28.5 4.8-49.9 21.9zM283.3 1007.9c-17.8 0-34.3-11.7-39.4-29.8-6.2-21.8 6.4-44.5 28.2-50.7 15.2-4.3 30.2-9.8 46.2-15.6 4.6-1.7 9.1-3.3 13.7-4.9 87-31 177.7-53.3 269.7-66.3s185.4-16.8 277.5-11.1c22.6 1.4 39.8 20.8 38.4 43.4-1.4 22.6-20.8 39.8-43.4 38.4C701 900.7 523 925.9 359.6 984.2c-4.4 1.6-8.8 3.2-13.3 4.8-16.6 6-33.7 12.2-51.6 17.3-3.9 1.1-7.7 1.6-11.4 1.6z"/>
  <path class="st1" d="M210.1 1188.9c-15.3 0-30-8.6-37-23.3-9.8-20.4-1.2-44.9 19.3-54.7 11.1-5.3 22.4-10.6 33.7-15.7 274.1-124.8 509.5-169.1 719.7-135.4 22.4 3.6 37.6 24.6 34 47-3.2 20.2-20.7 34.5-40.4 34.5-2.2 0-4.3-.2-6.5-.5-193.8-31.1-413.8 11.1-672.8 129-10.8 4.9-21.6 10-32.2 15.1-5.8 2.7-11.9 4-17.8 4z"/>
</svg>
